<?xml version="1.0" encoding="utf-8"?>
<!DOCTYPE svg PUBLIC "-//W3C//DTD SVG 1.0//EN" "http://www.w3.org/TR/2001/REC-SVG-20010904/DTD/svg10.dtd">
<svg version="1.0" xmlns="http://www.w3.org/2000/svg" width="625px" height="587px" viewBox="0 0 625 587" preserveAspectRatio="xMidYMid meet">
 <g fill="#ffffff">
  <path d="M0 293.56 l0 -293.56 312.50 0 312.50 0 0 293.56 0 293.56 -312.50 0 -312.50 0 0 -293.56z m305.22 253.26 c4.02 -2.78 10.65 -9.23 13.91 -13.55 6.16 -8.11 10.24 -18.82 10.95 -28.82 l0.36 -4.91 4.20 -2.84 c7.69 -5.33 10.48 -6.63 14.03 -6.63 3.08 0.06 3.43 0.24 9.35 4.68 13.67 10.36 24.03 14.97 36.99 16.63 9.17 1.12 15.57 0.36 24.62 -3.02 4.44 -1.66 14.32 -7.58 14.03 -8.40 -0.30 -1.07 -7.75 -6.57 -12.84 -9.59 -5.27 -3.08 -12.84 -6.27 -19.29 -8.11 -4.02 -1.12 -6.10 -1.36 -14.74 -1.36 -5.50 0 -12.67 0.24 -15.86 0.53 l-5.80 0.47 0.18 -2.25 c0.18 -2.19 0.47 -2.49 5.56 -5.92 3.02 -1.95 9 -5.74 13.32 -8.35 4.38 -2.60 12.31 -7.40 17.70 -10.65 5.39 -3.31 10.71 -6.39 11.84 -6.92 1.12 -0.53 2.90 -1.42 3.85 -2.01 1.83 -1.07 7.16 -2.96 12.72 -4.50 4.02 -1.12 22.85 -3.91 26.40 -3.91 l2.60 0 0 2.25 c0 1.24 -0.41 3.55 -0.95 5.09 -0.83 2.37 -0.89 3.26 -0.24 5.27 1.60 5.45 5.92 9.71 11.13 11.07 2.25 0.59 2.84 0.47 5.27 -0.71 3.26 -1.60 7.52 -6.21 8.46 -9.17 1.60 -4.73 -1.12 -10.95 -6.16 -14.09 -2.84 -1.72 -3.14 -1.78 -11.60 -1.95 -4.79 -0.12 -12.13 0.12 -16.34 0.47 -4.20 0.36 -9.71 0.83 -12.19 1.01 l-4.62 0.36 0 -1.95 c0 -1.66 1.24 -3.20 9.65 -11.90 l9.59 -10 4.14 0 c2.31 0 7.34 0.41 11.25 0.89 9.94 1.18 18.82 1.12 27.11 -0.30 7.81 -1.30 17.46 -4.14 20.54 -5.98 0.47 -0.30 1.83 -1.01 2.96 -1.60 4.79 -2.37 13.02 -8.29 17.40 -12.49 4.68 -4.50 9.23 -9.82 9.23 -10.71 0 -0.65 -7.28 -3.43 -12.61 -4.79 -13.08 -3.43 -32.08 -0.95 -46.40 5.98 -4.20 2.01 -6.87 2.96 -8.46 2.96 -2.25 0 -2.37 -0.12 -2.37 -1.83 0 -1.12 1.24 -3.91 3.31 -7.46 4.32 -7.28 10.59 -20.42 14.20 -29.65 3.26 -8.23 4.08 -9.17 9.71 -9.82 6.04 -0.77 15.92 -3.55 17.87 -5.03 0.77 -0.53 3.08 -1.78 5.21 -2.66 2.13 -0.95 4.26 -2.07 4.79 -2.49 0.47 -0.47 1.12 -0.83 1.36 -0.83 0.30 0 2.54 -1.72 5.09 -3.85 11.90 -9.94 20.54 -21.96 24.56 -34.39 2.25 -6.87 2.19 -6.98 -2.13 -6.51 -5.45 0.65 -14.97 3.61 -21.13 6.57 -10.83 5.21 -21.07 13.67 -28.41 23.50 -3.49 4.73 -4.02 5.21 -5.86 5.21 l-1.95 0 0 -3.37 c0.06 -1.89 0.30 -5.27 0.65 -7.58 0.36 -2.25 0.83 -14.15 1.12 -26.34 0.36 -16.81 0.65 -22.90 1.36 -25.15 1.54 -5.15 3.91 -11.07 6.75 -16.69 l2.72 -5.50 2.37 0 c1.89 0 2.84 0.47 5.21 2.60 3.85 3.43 8.11 4.62 11.25 3.02 3.73 -1.89 5.86 -3.91 7.40 -6.92 2.84 -5.56 0.95 -11.36 -5.03 -15.57 -2.13 -1.48 -3.08 -1.78 -5.86 -1.72 -6.39 0.06 -11.60 4.38 -13.79 11.48 -0.65 2.13 -2.37 5.86 -3.85 8.29 -1.48 2.43 -3.79 6.81 -5.15 9.65 -2.49 5.15 -2.49 5.21 -4.50 5.03 l-2.07 -0.18 -2.43 -10.06 c-1.36 -5.50 -3.20 -12.43 -4.14 -15.39 -2.90 -9.47 -4.44 -15.33 -4.44 -17.16 0 -1.24 0.95 -2.96 3.20 -5.80 15.39 -19.24 21.13 -39.95 17.05 -61.08 -1.24 -6.45 -3.91 -15.15 -5.56 -18.29 l-0.83 -1.66 -3.49 3.79 c-7.34 7.93 -13.26 18.88 -15.98 29.77 -2.01 7.75 -2.66 15.15 -2.25 24.33 l0.36 7.99 -2.25 -0.18 c-2.07 -0.18 -2.37 -0.47 -4.38 -3.91 -2.54 -4.44 -11.19 -17.52 -15.80 -23.97 -3.31 -4.56 -3.31 -4.62 -4.14 -11.13 -0.95 -7.28 -2.90 -14.03 -5.86 -20.48 -5.80 -12.61 -18.05 -24.50 -31.90 -31.01 -4.91 -2.25 -12.55 -4.56 -13.20 -3.85 -0.18 0.18 -0.06 2.19 0.36 4.44 2.37 14.44 10.77 30.07 21.48 40.01 5.39 4.97 9.17 7.58 18.35 12.49 3.97 2.13 7.99 4.50 8.94 5.21 4.62 3.37 16.99 23.20 16.99 27.17 0 2.13 -0.06 2.19 -2.19 2.19 -1.95 0 -3.26 -0.83 -9.06 -5.39 -11.42 -9.06 -21.07 -14.62 -31.66 -18.17 -9.17 -3.08 -15.68 -3.85 -26.57 -3.14 -5.15 0.30 -9.65 0.83 -10 1.18 -0.89 0.89 4.50 8.46 9.59 13.49 4.85 4.79 12.61 10.30 18.53 13.14 10.42 4.91 23.32 7.58 34.21 6.92 3.43 -0.18 9 -0.47 12.43 -0.71 l6.21 -0.36 2.19 1.89 c2.78 2.31 9.29 12.01 11.96 17.81 3.91 8.46 9.23 26.46 11.25 38.12 0.53 2.96 0.95 7.63 0.95 10.54 l0 5.15 -2.01 0 c-1.89 0 -2.13 -0.30 -5.09 -5.39 -10.42 -17.99 -25.69 -30.78 -42.73 -35.69 -5.92 -1.66 -10.54 -2.43 -10.54 -1.66 0 2.78 3.49 13.32 6.21 18.76 9.47 19 26.69 33.32 48.24 40.01 3.43 1.07 6.57 2.19 6.98 2.49 0.53 0.41 0.71 3.14 0.71 10.12 0 23.73 -5.27 48 -15.09 69.48 -2.13 4.62 -2.31 4.85 -4.14 4.85 l-1.95 0 -0.30 -11.96 c-0.24 -9.11 -0.59 -13.32 -1.54 -17.46 -2.49 -11.19 -6.98 -21.72 -13.20 -31.07 -3.79 -5.62 -11.96 -14.68 -13.26 -14.68 -1.12 0 -7.52 13.26 -9.94 20.71 -3.49 10.89 -4.79 18.64 -4.73 28.41 0.06 9.53 1.36 15.74 4.91 24.33 1.83 4.38 8.76 15.74 9.23 15.21 0.18 -0.18 -0.89 -2.37 -2.37 -4.97 -3.26 -5.62 -5.80 -12.13 -7.58 -19.06 -1.07 -4.38 -1.30 -6.75 -1.24 -15.80 0 -7.46 0.30 -12.31 1.01 -16.16 1.24 -6.81 4.56 -17.28 7.34 -23.32 l2.13 -4.62 2.43 0 c2.25 0 2.66 0.30 5.45 3.73 6.75 8.17 11.01 16.04 14.44 26.40 3.14 9.41 4.14 16.16 4.14 27.23 0 16.81 -3.08 28.65 -10.42 40.19 -1.78 2.78 -2.19 3.08 -4.08 3.08 -2.01 0 -2.07 -0.06 -2.07 -2.19 0 -1.24 0.41 -4.79 0.89 -7.87 2.01 -12.96 1.72 -25.69 -0.95 -39.18 -1.36 -7.16 -2.13 -9.17 -2.96 -8.35 -0.41 0.41 -0.30 2.19 0.36 5.56 3.43 17.99 2.19 42.73 -2.90 59.30 -0.83 2.66 -1.78 5.21 -2.07 5.68 -0.47 0.77 -2.07 0.71 -11.48 -0.24 -30.54 -3.02 -66.29 1.83 -91.56 12.37 -11.96 5.03 -28.35 14.68 -36.22 21.31 -4.91 4.20 -6.51 5.09 -9 5.09 -2.13 0 -3.14 -0.59 -7.75 -4.26 -33.62 -26.69 -78.30 -38.94 -125.53 -34.45 -5.33 0.47 -11.07 0.83 -12.72 0.71 l-3.08 -0.18 -1.42 -4.14 c-2.25 -6.57 -4.20 -15.80 -4.97 -23.62 -1.07 -11.07 0 -31.96 2.13 -41.19 l0.36 -1.48 -1.24 1.24 c-1.48 1.42 -2.49 5.74 -3.85 15.98 -1.12 8.58 -1.12 19.35 0 27.76 0.47 3.61 0.89 7.63 0.89 9.06 0 2.43 -0.06 2.49 -2.01 2.49 -2.37 0 -3.20 -0.95 -6.51 -7.58 -5.62 -11.13 -7.75 -22.43 -7.28 -37.70 0.36 -10.95 1.18 -15.63 4.26 -24.98 3.20 -9.53 8.46 -19.18 14.32 -26.04 2.43 -2.90 2.84 -3.14 5.27 -3.14 l2.66 0 2.25 4.91 c5.33 11.48 7.69 21.66 8.17 34.74 0.53 16.69 -2.37 28.17 -10.77 41.90 -2.66 4.32 -0.53 2.72 2.60 -2.01 5.74 -8.52 8.76 -16.16 10.48 -26.34 2.49 -14.86 -1.18 -34.21 -9.53 -50.84 -4.79 -9.47 -4.08 -9.11 -8.82 -4.14 -10.48 11.13 -17.46 23.62 -21.31 38.12 -2.25 8.23 -2.84 13.38 -2.78 23.91 l0 9.59 -1.95 0 c-1.89 0 -2.01 -0.18 -4.50 -5.45 -3.31 -7.28 -9.06 -24.56 -10.89 -33.03 -2.54 -11.66 -3.37 -18.82 -3.73 -32.02 l-0.36 -12.84 1.42 -0.89 c0.77 -0.53 3.14 -1.36 5.27 -1.89 2.13 -0.53 4.38 -1.18 5.03 -1.48 0.65 -0.24 2.37 -1.01 3.85 -1.66 1.48 -0.65 3.31 -1.36 4.14 -1.60 0.83 -0.24 2.01 -0.89 2.66 -1.48 0.65 -0.53 2.54 -1.72 4.14 -2.60 10.89 -5.80 23.56 -19.12 29.59 -31.13 2.72 -5.45 5.27 -12.84 5.92 -17.34 l0.41 -2.84 -2.25 0.36 c-14.56 2.49 -28.41 10 -38.88 20.95 -4.32 4.56 -13.49 17.52 -14.32 20.24 -0.30 0.83 -0.95 1.12 -2.43 1.12 l-2.01 0 0 -5.56 c0 -17.34 9.77 -47.82 19.53 -60.90 4.73 -6.33 5.15 -6.51 15.39 -5.98 4.73 0.24 12.61 0.47 17.46 0.47 8.11 0 9.29 -0.12 14.03 -1.66 2.84 -0.89 6.45 -2.25 7.99 -3.02 1.60 -0.71 3.67 -1.54 4.73 -1.72 1.01 -0.24 2.19 -0.77 2.54 -1.24 0.36 -0.47 2.07 -1.72 3.73 -2.78 5.21 -3.26 11.01 -8.23 14.44 -12.25 4.56 -5.39 7.58 -10.06 6.92 -10.71 -1.01 -1.01 -11.60 -1.89 -17.40 -1.48 -18.17 1.24 -33.50 7.81 -51.14 21.78 -5.56 4.44 -6.75 5.15 -8.76 5.15 -2.13 0 -2.25 -0.12 -2.25 -1.78 0 -3.14 7.52 -16.39 13.55 -23.97 2.19 -2.66 7.93 -6.81 9.53 -6.81 0.59 0 1.36 -0.36 1.72 -0.83 0.41 -0.47 3.14 -2.19 6.04 -3.91 15.92 -9.23 27.52 -23.44 32.79 -40.19 1.66 -5.33 3.08 -13.44 2.54 -14.03 -0.77 -0.71 -8.17 1.72 -14.38 4.73 -21.78 10.54 -34.51 28.94 -37.29 53.80 -0.36 2.90 -0.89 4.14 -3.61 7.99 -3.43 4.85 -11.30 16.63 -15.80 23.67 -2.60 3.97 -2.90 4.26 -4.91 4.26 l-2.13 0 0.47 -5.50 c1.36 -15.98 -1.01 -28.65 -7.93 -42.08 -2.90 -5.68 -8.11 -13.02 -11.54 -16.28 l-2.13 -2.01 -0.65 1.72 c-3.55 9.11 -5.74 19.06 -6.27 28.17 -1.07 17.16 5.15 35.63 16.99 50.54 3.20 3.97 3.49 4.62 3.49 7.22 0 1.72 -1.07 6.39 -2.60 11.42 -2.49 8.29 -5.56 20.48 -6.87 27.34 l-0.65 3.37 -2.19 0 -2.19 0 -3.43 -6.63 c-1.83 -3.67 -4.38 -8.52 -5.56 -10.83 -1.24 -2.25 -2.72 -5.62 -3.37 -7.40 -2.13 -6.21 -8.52 -10.65 -14.26 -9.82 -4.56 0.71 -9.59 5.39 -10.89 10.18 -1.60 5.68 4.68 13.73 11.42 14.74 2.84 0.47 5.74 -0.83 9 -3.97 1.60 -1.48 2.19 -1.72 4.73 -1.54 l2.84 0.18 2.54 4.73 c1.36 2.60 3.49 7.69 4.68 11.25 l2.25 6.51 0.41 20.12 c0.30 11.07 0.89 23.79 1.42 28.29 0.47 4.56 0.89 9.23 0.89 10.54 0 2.25 -0.06 2.31 -1.95 2.31 -1.78 0 -2.37 -0.47 -5.62 -4.68 -8.64 -11.19 -17.46 -18.53 -28.71 -24.03 -9.41 -4.56 -23.73 -8.40 -24.50 -6.51 -0.41 1.12 2.01 8.88 4.38 13.79 5.21 11.01 15.74 23.26 25.69 29.89 8.76 5.80 18.88 9.88 29.59 11.96 6.51 1.24 7.40 1.66 7.87 3.67 1.42 5.62 11.01 26.93 16.22 35.93 2.07 3.49 3.08 5.92 3.08 7.22 0 1.89 -0.12 2.01 -2.07 2.01 -1.18 0 -3.61 -0.77 -5.50 -1.72 -7.93 -3.97 -18.29 -7.28 -25.98 -8.29 -9.47 -1.30 -24.21 0.83 -32.08 4.56 l-3.61 1.72 1.89 2.60 c6.21 8.58 18.82 17.87 30.95 22.79 14.26 5.74 28.41 7.10 51.25 4.97 l7.99 -0.77 9.77 9.88 c8.23 8.46 9.71 10.24 9.88 11.96 0.18 1.95 0.18 2.01 -2.13 2.01 -1.24 0 -4.91 -0.41 -8.17 -0.89 -6.33 -0.95 -27.99 -1.24 -28.94 -0.41 -0.36 0.30 -1.72 0.83 -3.14 1.24 -5.21 1.48 -9.53 7.69 -8.70 12.49 1.18 7.04 9.65 13.44 15.39 11.66 2.96 -0.89 7.58 -5.15 9.17 -8.40 0.95 -2.01 1.24 -3.31 1.01 -5.21 -0.18 -1.36 -0.53 -4.02 -0.77 -5.86 l-0.36 -3.43 6.10 0 c11.01 0 24.44 2.72 33.14 6.69 5.03 2.31 11.36 5.98 35.04 20.30 21.54 13.08 19.95 11.90 19.95 14.62 l0 2.31 -3.08 -0.36 c-1.72 -0.18 -7.16 -0.47 -12.01 -0.71 -14.62 -0.65 -25.09 1.66 -38.12 8.35 -6.81 3.55 -16.22 10.12 -15.86 11.13 0.41 1.30 10.30 6.33 16.34 8.35 13.26 4.38 24.38 4.26 36.75 -0.24 5.98 -2.25 12.37 -6.04 22.61 -13.61 8.11 -5.92 9.29 -6.27 13.67 -4.08 1.36 0.71 5.21 3.02 8.52 5.21 l6.10 3.91 0 3.26 c0.06 11.96 6.57 26.52 16.28 36.46 3.55 3.61 10.59 9.11 11.66 9.11 0.30 0 1.78 -0.83 3.26 -1.83z m0.71 -160.75 c0.71 -1.42 6.87 -19 9.29 -26.63 1.18 -3.79 1.60 -5.92 1.12 -5.74 -0.41 0.18 -1.07 1.42 -1.48 2.78 -1.66 5.56 -4.79 10.71 -9.29 15.09 l-4.38 4.26 2.66 0 2.72 0 0 2.31 c0 1.24 -0.30 3.08 -0.65 4.14 l-0.65 1.83 -5.62 0 -5.56 0 0.18 -2.19 c0.12 -1.72 0.59 -2.49 2.01 -3.43 3.85 -2.49 4.02 -2.66 1.12 -1.24 -3.97 1.89 -10.06 3.67 -16.51 4.79 -3.97 0.65 -9.71 0.89 -23.32 0.89 l-18.05 0 0.30 -2.78 c0.36 -3.31 5.15 -14.38 8.35 -19.18 4.62 -6.98 13.67 -14.62 23.79 -20.06 3.37 -1.89 17.93 -7.46 21.01 -8.11 0.83 -0.18 1.78 -0.59 2.13 -0.83 0.36 -0.30 2.66 -1.07 5.03 -1.72 2.43 -0.65 7.34 -2.01 10.89 -3.02 3.61 -1.01 9 -2.43 12.01 -3.26 3.08 -0.83 5.98 -1.72 6.51 -2.01 0.53 -0.30 3.26 -1.36 6.04 -2.43 7.46 -2.84 8.58 -3.31 15.92 -7.46 3.67 -2.01 6.81 -3.73 6.98 -3.73 0.12 0 2.96 -2.07 6.27 -4.56 12.49 -9.41 21.13 -19.95 28.47 -34.80 6.69 -13.49 9.41 -23.20 9.35 -33.74 -0.06 -16.51 -8.29 -30.13 -22.85 -37.64 -4.85 -2.54 -11.42 -4.85 -12.31 -4.32 -0.77 0.47 -2.19 6.10 -2.78 11.19 -2.07 16.81 6.57 31.43 21.25 36.10 1.78 0.59 3.61 1.36 4.02 1.72 1.07 1.01 2.01 10.95 1.60 16.34 -1.18 13.79 -8.17 26.22 -21.48 38.06 -7.69 6.81 -20.66 14.62 -24.33 14.62 -1.89 0 -2.07 -0.41 -9.71 -18.64 -5.86 -14.03 -23.73 -56.05 -27.40 -64.39 -1.12 -2.54 -2.01 -5.45 -2.01 -6.51 0.06 -1.07 1.54 -5.62 3.43 -10.18 l3.37 -8.29 3.02 -0.18 3.02 -0.18 9.17 21.48 c21.19 49.24 28.35 65.81 28.59 66.11 0.18 0.18 0.71 -0.12 1.18 -0.59 0.77 -0.77 0.47 -1.89 -2.90 -9.71 -2.07 -4.91 -6.81 -16.04 -10.59 -24.86 -3.73 -8.76 -10.30 -24.09 -14.62 -34.03 -4.32 -9.94 -8.88 -20.60 -10.24 -23.67 -1.30 -3.08 -2.78 -6.10 -3.31 -6.69 -0.83 -1.01 -0.95 -0.95 -1.89 0.89 -0.53 1.07 -4.08 9.71 -7.93 19.12 -13.38 33.08 -21.07 51.79 -23.32 56.76 -1.01 2.25 -1.83 4.26 -1.83 4.44 0 0.18 1.78 0.36 3.97 0.36 l4.02 0 0.18 3.43 c0.24 4.26 -1.48 8.29 -4.26 9.94 -1.72 1.07 -3.31 1.12 -25.63 1.12 l-23.85 0 0 -39.89 0 -39.89 1.95 -0.65 c1.07 -0.30 11.60 -0.65 24.50 -0.77 l22.55 -0.18 1.89 1.36 c1.01 0.77 1.95 1.30 2.07 1.18 0.30 -0.36 3.26 -6.33 3.26 -6.69 0 -0.18 -22.90 -0.30 -50.96 -0.30 -28.23 0 -50.78 0.24 -50.60 0.53 0.18 0.24 2.07 0.65 4.26 0.89 5.15 0.53 7.34 1.48 9.53 4.20 3.61 4.32 3.43 0.53 3.43 86.41 0 73.69 -0.06 78.95 -1.07 82.09 -1.83 6.04 -5.50 8.82 -12.96 9.77 -2.72 0.36 -3.31 0.71 -2.43 1.54 0.18 0.24 25.86 0.41 57.05 0.41 53.39 0 56.76 -0.06 57.29 -1.01z m108.78 0.12 c0.12 -0.36 -1.66 -1.12 -3.91 -1.66 -7.16 -1.89 -11.72 -5.98 -15.92 -14.32 -1.36 -2.78 -14.62 -33.08 -22.02 -50.43 -1.24 -2.96 -2.43 -3.85 -3.26 -2.54 -0.18 0.30 3.67 10 8.64 21.43 10.12 23.56 14.26 32.61 17.40 37.76 1.54 2.54 2.07 4.08 1.95 5.45 l-0.18 1.95 -14.20 0 -14.20 0 -0.18 -1.42 c-0.12 -0.83 0.12 -2.96 0.47 -4.85 0.95 -4.56 0.41 -6.39 -8.70 -27.64 -4.02 -9.59 -7.63 -18.17 -7.99 -19.12 -0.59 -1.66 -2.37 -2.37 -3.14 -1.18 -0.18 0.30 2.37 6.75 5.68 14.38 9.35 21.48 10.59 24.80 10.95 28.29 0.77 6.87 -2.01 11.48 -7.28 12.19 -3.73 0.47 -5.03 1.18 -3.73 2.01 1.24 0.83 59.30 0.53 59.60 -0.30z m-107.84 -242.07 c2.13 -11.36 4.02 -21.19 4.20 -21.72 0.41 -1.48 4.38 -1.42 7.34 0.12 1.95 1.01 13.02 7.46 23.38 13.67 l2.37 1.42 -0.95 -1.48 c-16.69 -25.86 -17.10 -26.63 -17.10 -29 0 -1.42 0.30 -2.49 0.77 -2.60 0.36 -0.12 5.09 -1.07 10.48 -2.13 5.39 -1.07 10.83 -2.13 12.13 -2.43 1.30 -0.24 5.21 -1.01 8.76 -1.66 7.28 -1.42 13.55 -3.14 12.25 -3.43 -0.47 -0.12 -10.71 -2.31 -22.79 -4.79 l-21.90 -4.56 -0.18 -2.07 c-0.12 -1.78 1.01 -3.85 8.46 -15.39 10.89 -16.75 10.54 -16.10 7.75 -13.97 -1.24 0.89 -7.46 4.85 -13.85 8.70 -9.94 6.04 -12.01 7.04 -14.15 7.04 -1.83 0 -2.54 -0.24 -2.72 -1.01 -0.18 -0.59 -2.25 -11.13 -4.62 -23.44 -2.66 -13.49 -4.56 -21.96 -4.79 -21.31 -0.24 0.59 -2.31 10.65 -4.62 22.37 -2.31 11.72 -4.38 21.90 -4.56 22.67 -0.24 1.07 -0.71 1.30 -2.49 1.30 -2.43 0 -8.35 -3.37 -22.73 -12.78 -7.99 -5.27 -8.11 -5.27 -3.97 0.95 1.18 1.78 4.91 7.58 8.23 12.84 4.97 7.99 5.98 10.06 5.98 12.01 0 2.84 1.78 2.31 -24.03 7.40 -10.65 2.13 -19.47 3.91 -19.53 4.02 -0.06 0.06 9.77 2.25 21.84 4.91 l22.02 4.73 0.18 2.07 c0.18 1.78 -0.89 3.67 -7.69 14.20 -4.38 6.63 -8.52 13.02 -9.23 14.26 l-1.30 2.13 1.89 -1.01 c1.07 -0.53 3.20 -1.83 4.73 -2.90 1.48 -1.01 3.49 -2.19 4.32 -2.49 0.89 -0.36 2.31 -1.18 3.20 -1.83 0.83 -0.65 4.02 -2.66 7.04 -4.44 4.62 -2.72 5.98 -3.20 8.40 -3.20 1.66 0 2.96 0.06 2.96 0.18 0 0.24 8.05 40.25 9 44.80 l0.65 3.26 0.47 -2.37 c0.30 -1.30 2.25 -11.66 4.38 -23.08z"/>
  <path d="M296.16 542.50 c-9.11 -7.16 -15.51 -17.40 -17.87 -28.76 -1.18 -5.74 -0.89 -6.51 2.49 -6.51 2.49 0 2.90 0.24 7.34 4.68 4.79 4.73 9.65 11.84 12.07 17.64 0.71 1.72 1.48 3.14 1.66 3.14 0.18 0 1.18 -1.66 2.13 -3.67 2.78 -5.92 8.29 -13.79 12.84 -18.23 3.97 -3.97 4.26 -4.14 7.04 -4.14 2.84 0 2.84 0 2.84 1.95 -0.06 4.91 -3.08 14.09 -6.98 20.71 -2.25 3.85 -8.35 10.65 -12.72 14.15 -4.08 3.20 -5.74 3.08 -10.83 -0.95z"/>
  <path d="M298.18 521.01 c-3.26 -4.73 -9.53 -11.48 -15.27 -16.45 l-5.45 -4.73 0.30 -3.55 c1.01 -10.36 9.41 -27.46 18.53 -37.52 3.08 -3.37 3.49 -3.61 5.86 -3.61 2.37 0 2.78 0.24 5.33 3.14 9.06 10.24 18.64 30.36 18.64 39.06 l-0.06 3.08 -5.09 4.32 c-5.74 4.85 -11.25 10.83 -14.68 15.80 -1.95 2.84 -2.54 3.26 -4.20 3.26 -1.66 0 -2.25 -0.41 -3.91 -2.78z"/>
  <path d="M194.90 508.40 c-4.26 -0.65 -10.95 -2.72 -15.68 -4.85 -3.79 -1.72 -4.02 -1.95 -4.02 -3.79 0 -1.72 0.41 -2.31 2.84 -4.02 7.22 -5.33 19.65 -10.30 28.82 -11.60 10.54 -1.48 28.41 -0.47 37.46 2.13 3.02 0.83 3.08 0.89 3.08 3.08 0 1.95 -0.36 2.49 -2.78 4.32 -10.36 7.75 -19.77 12.31 -29.95 14.44 -4.26 0.95 -14.44 1.07 -19.77 0.30z"/>
  <path d="M391.51 508.40 c-9.11 -1.42 -22.02 -7.04 -30.18 -13.20 -3.67 -2.72 -4.14 -3.37 -4.32 -5.27 -0.24 -2.90 0.95 -3.61 8.58 -5.15 4.91 -1.01 8.23 -1.24 18.70 -1.24 11.42 0 13.26 0.12 18.29 1.42 7.52 1.89 13.55 4.50 20.12 8.64 l5.50 3.43 0 2.54 0 2.60 -4.62 1.95 c-8.35 3.61 -11.84 4.38 -20.54 4.56 -4.38 0.12 -9.59 0 -11.54 -0.30z"/>
  <path d="M260.30 488.10 c-6.10 -3.97 -15.45 -9.77 -20.71 -12.90 -46.28 -27.34 -59.13 -36.16 -73.75 -50.66 -6.98 -6.98 -7.28 -7.34 -7.10 -9.47 l0.18 -2.25 5.62 -0.77 c6.21 -0.83 45.63 -0.77 47.53 0.12 0.89 0.41 1.01 1.42 1.01 7.69 0 8.17 1.07 13.38 4.02 20 3.97 8.70 9.06 15.51 15.09 20.06 5.98 4.56 7.16 4.56 1.42 0 -7.75 -6.16 -13.97 -16.04 -16.39 -26.10 -2.19 -9.23 -1.54 -11.19 3.61 -11.25 2.37 0 3.31 0.41 6.21 2.54 11.84 8.70 18.05 19.59 19.77 34.39 0.71 5.80 1.72 8.11 2.43 5.50 0.47 -1.78 -0.24 -9.17 -1.24 -12.96 -2.90 -10.59 -10.18 -20.77 -20.48 -28.41 -4.79 -3.55 -5.03 -3.79 -4.85 -5.80 0.18 -2.07 0.18 -2.07 3.37 -2.25 7.87 -0.47 25.27 4.50 38.88 11.07 13.32 6.45 24.44 13.67 31.49 20.36 3.61 3.55 3.43 4.79 -1.60 10.71 -8.46 10 -14.97 21.48 -18.11 31.96 -1.72 5.56 -1.78 5.68 -3.55 5.68 -1.24 0 -4.91 -2.07 -12.84 -7.28z"/>
  <path d="M327.06 489.11 c-3.97 -11.48 -11.13 -23.97 -18.35 -32.08 -2.72 -3.08 -3.31 -4.08 -3.31 -5.86 0 -2.43 0.47 -2.96 9.17 -9.53 10.77 -8.17 25.27 -15.98 38.17 -20.54 9.35 -3.26 19.65 -5.62 24.68 -5.62 l4.32 0 0 2.01 c0 1.78 -0.47 2.31 -4.26 5.15 -6.16 4.56 -8.52 6.75 -12.43 11.72 -5.86 7.34 -9.23 15.27 -10.54 24.80 -0.71 5.15 -0.12 8.52 1.07 6.33 0.30 -0.65 0.77 -2.49 1.01 -4.14 2.25 -17.16 7.69 -27.05 19.71 -36.10 4.97 -3.73 5.27 -3.85 8.64 -3.85 l3.49 0 -0.36 4.50 c-0.53 6.21 -1.83 10.89 -4.79 17.10 -3.20 6.69 -8.76 13.73 -13.67 17.28 -4.68 3.37 -4.62 4.20 0.06 1.01 7.16 -4.97 14.91 -14.91 18.05 -23.32 2.43 -6.51 3.08 -10.18 3.14 -17.76 l0.06 -7.34 2.07 -0.41 c7.16 -1.48 31.19 -2.13 42.32 -1.12 10.54 0.95 10.36 0.89 10.36 3.37 0 1.89 -0.65 2.78 -7.52 9.59 -11.90 11.78 -21.90 19.35 -43.21 32.55 -4.32 2.66 -7.99 5.09 -8.23 5.45 -0.18 0.36 -1.48 1.12 -2.90 1.72 -1.36 0.59 -5.39 2.84 -8.94 5.03 -3.55 2.25 -10.18 6.21 -14.74 8.88 -4.56 2.66 -12.61 7.69 -17.93 11.19 -6.51 4.26 -10.18 6.27 -11.30 6.27 -1.60 0 -1.78 -0.30 -3.85 -6.27z"/>
  <path d="M127.84 457.62 c-3.43 -1.72 -4.73 -4.32 -4.73 -9.41 0 -4.79 0.83 -7.04 3.31 -9 1.36 -1.07 2.43 -1.24 6.87 -1.24 4.38 0 5.62 0.24 6.98 1.18 2.43 1.72 3.73 5.68 3.43 10.06 -0.30 3.97 -1.42 5.98 -4.62 8.17 -2.49 1.66 -8.17 1.83 -11.25 0.24z"/>
  <path d="M465.20 457.56 c-3.49 -1.83 -4.44 -3.67 -4.62 -9.11 -0.18 -4.32 -0.06 -5.09 1.18 -6.92 1.89 -2.84 4.73 -4.14 9 -4.14 6.57 0 10.42 3.91 10.42 10.54 0 3.97 -1.07 6.45 -3.79 8.88 -2.01 1.72 -2.49 1.89 -6.16 1.89 -2.72 0 -4.62 -0.36 -6.04 -1.12z"/>
  <path d="M111.98 411.34 c-16.63 -2.13 -31.96 -9.06 -43.09 -19.71 -3.73 -3.49 -4.38 -4.38 -4.38 -6.10 0 -2.54 1.24 -3.37 7.10 -4.68 5.86 -1.36 20.83 -1.83 27.28 -0.95 14.20 2.07 29.53 9.94 41.55 21.31 4.85 4.62 5.21 5.15 5.03 7.10 -0.18 1.83 -0.41 2.13 -2.25 2.60 -3.08 0.71 -26.22 1.01 -31.25 0.41z m9.94 -10.59 c0 -0.77 -10 -4.02 -15.57 -5.09 -5.33 -1.01 -10.48 -1.18 -10.48 -0.30 0 0.65 0.18 0.71 10.06 2.37 5.68 0.95 13.67 2.72 15.86 3.49 0.06 0.06 0.12 -0.18 0.12 -0.47z"/>
  <path d="M465.49 411.28 c-7.34 -0.83 -7.40 -0.83 -7.40 -3.14 0 -1.72 0.77 -2.72 6.10 -7.87 11.72 -11.25 21.90 -16.39 40.07 -20.30 2.07 -0.47 7.16 -0.65 14.20 -0.47 9.17 0.18 11.72 0.47 15.86 1.60 l4.85 1.36 0 2.49 c0 2.25 -0.30 2.72 -4.56 6.75 -11.01 10.42 -25.86 17.46 -41.31 19.59 -5.27 0.77 -20.95 0.71 -27.82 0z m18.64 -10.59 c1.12 -0.36 6.21 -1.42 11.25 -2.43 5.03 -0.95 9.94 -1.89 10.83 -2.07 2.78 -0.59 1.48 -1.72 -1.72 -1.48 -5.92 0.36 -18.94 3.79 -21.84 5.74 -1.36 1.01 -1.18 1.01 1.48 0.24z"/>
  <path d="M93.10 333.75 c-11.90 -3.20 -20.89 -8.29 -30.01 -17.10 -8.58 -8.29 -16.93 -22.19 -16.93 -28.23 l0 -2.54 3.49 0 c4.20 0 11.54 2.19 17.52 5.21 9.88 4.91 19.65 13.20 26.63 22.55 4.62 6.10 10.36 16.99 10.36 19.53 l0 1.83 -3.37 -0.06 c-1.89 0 -5.33 -0.53 -7.69 -1.18z"/>
  <path d="M500.12 332.39 c0 -1.95 0.65 -3.85 2.43 -7.28 8.35 -15.74 19.89 -27.28 34.39 -34.21 6.81 -3.26 11.36 -4.56 16.99 -4.91 l4.38 -0.24 -0.30 2.66 c-0.18 1.42 -1.54 5.15 -3.02 8.29 -6.92 14.68 -17.87 25.63 -32.49 32.67 -5.98 2.90 -15.68 5.62 -19.77 5.62 l-2.60 0 0 -2.60z"/>
  <path d="M485.32 274.68 c-18.70 -6.98 -33.38 -20.12 -41.07 -36.81 -2.49 -5.39 -4.02 -10.65 -3.79 -12.78 0.18 -1.42 0.47 -1.66 2.43 -1.83 2.84 -0.24 7.75 1.18 13.85 4.02 11.07 5.15 20.89 13.79 28.17 24.74 4.44 6.63 9.29 18.41 9.29 22.43 0 1.89 -0.12 1.95 -2.19 1.95 -1.24 -0.06 -4.26 -0.83 -6.69 -1.72z"/>
  <path d="M110.09 273.38 c0 -4.26 4.73 -14.97 10.24 -23.32 3.08 -4.56 10.89 -12.67 15.80 -16.28 8.05 -5.92 18.94 -10.65 24.50 -10.65 l2.72 0 0 2.25 c0 5.15 -5.45 17.16 -11.30 24.98 -5.68 7.52 -13.85 14.62 -22.08 19.24 -5.62 3.14 -14.15 6.21 -17.22 6.21 l-2.66 0 0 -2.43z"/>
  <path d="M68.48 234.97 c-2.60 -2.25 -3.61 -5.50 -3.20 -9.88 0.41 -3.91 2.07 -6.27 5.15 -7.52 4.68 -1.89 10.06 -0.95 13.02 2.25 1.18 1.30 1.48 2.37 1.66 5.74 0.30 4.68 -0.36 6.75 -2.90 9.17 -1.66 1.54 -2.25 1.72 -6.69 1.89 -4.79 0.24 -4.97 0.18 -7.04 -1.66z"/>
  <path d="M522.19 235.56 c-2.43 -1.42 -3.73 -4.02 -4.14 -7.93 -0.41 -4.14 0.77 -7.34 3.31 -9.06 1.72 -1.12 2.78 -1.36 7.04 -1.36 l4.97 0 2.31 2.31 2.31 2.31 0 5.15 0 5.15 -2.31 2.31 c-2.25 2.31 -2.31 2.31 -6.92 2.31 -3.61 0 -5.09 -0.30 -6.57 -1.18z"/>
  <path d="M108.55 193.24 c-7.04 -10.71 -10.71 -22.25 -11.30 -36.10 -0.36 -9.17 0.36 -17.64 2.25 -25.86 l1.24 -5.21 2.49 0 c2.43 0 2.66 0.18 5.03 3.55 3.26 4.62 6.75 11.66 8.52 17.16 2.66 8.17 3.08 11.90 3.02 25.45 -0.06 11.01 -0.30 13.61 -1.48 19.24 l-1.42 6.51 -2.49 0.18 -2.43 0.18 -3.43 -5.09z"/>
  <path d="M485.32 191.64 c-1.89 -8.82 -2.37 -26.93 -0.95 -35.16 1.66 -9.71 5.56 -19.29 10.83 -26.69 2.49 -3.61 2.72 -3.73 5.21 -3.73 l2.54 0 1.24 5.21 c2.19 9.29 2.54 13.55 2.25 24.33 -0.18 8.76 -0.47 11.36 -1.83 16.34 -1.72 6.63 -7.28 18.47 -10.83 23.08 -2.01 2.54 -2.60 2.96 -4.68 3.14 l-2.37 0.18 -1.42 -6.69z"/>
  <path d="M145.18 187.20 l-3.14 -0.24 0 -2.25 c0 -2.07 0.41 -2.66 3.97 -5.98 7.40 -6.98 18.76 -13.49 29.59 -17.10 7.81 -2.60 14.62 -3.61 24.92 -3.61 l9 0 0 2.25 c0 1.83 -0.53 2.84 -3.26 5.92 -9.47 10.83 -22.25 18.11 -36.22 20.54 -4.73 0.83 -16.51 1.07 -24.86 0.47z"/>
  <path d="M436.49 187.20 c-3.61 -0.53 -11.19 -2.66 -15.57 -4.38 -8.88 -3.55 -17.76 -9.82 -23.73 -16.75 -2.19 -2.49 -2.49 -3.20 -2.31 -5.33 l0.18 -2.43 9.11 -0.18 c6.45 -0.12 10.65 0.12 14.20 0.77 13.73 2.54 28.05 9.65 39.30 19.47 4.32 3.79 4.62 4.14 4.44 6.21 -0.18 2.07 -0.24 2.13 -3.14 2.54 -3.20 0.41 -19.59 0.47 -22.49 0.06z"/>
  <path d="M152.70 143.64 c0 -7.52 4.14 -18.94 9.77 -26.81 5.56 -7.75 13.79 -14.62 23.20 -19.41 3.49 -1.72 4.91 -2.13 7.87 -2.13 l3.55 0 0 2.31 c0 2.90 -2.43 11.36 -4.68 16.34 -4.32 9.47 -12.37 19.29 -20.77 25.21 -5.50 3.91 -14.32 8.23 -16.87 8.23 l-2.07 0 0 -3.73z"/>
  <path d="M441.11 144.77 c-13.61 -7.34 -21.96 -15.74 -28.29 -28.47 -3.55 -7.04 -6.39 -16.16 -6.10 -19.35 0.18 -1.89 0.30 -1.95 2.96 -2.13 2.43 -0.18 3.67 0.24 9.17 3.08 3.55 1.78 8.64 5.09 11.36 7.22 11.54 9.23 19.59 24.03 20.60 37.88 l0.36 4.38 -2.60 0 c-1.95 0 -3.85 -0.71 -7.46 -2.60z"/>
  <path d="M208.93 381.81 c0 -0.95 0.65 -3.14 1.42 -4.85 0.83 -1.78 1.78 -4.91 2.13 -7.04 0.41 -2.66 0.59 -26.57 0.47 -79.01 -0.18 -72.03 -0.24 -75.28 -1.30 -77.83 -0.59 -1.48 -1.24 -3.91 -1.36 -5.45 -0.36 -3.55 -0.41 -3.55 11.66 -3.31 l9.17 0.18 0.18 89.55 0.12 89.49 -11.25 0 -11.25 0 0 -1.72z"/>
  <path d="M236.27 330.14 l0.18 -38.06 17.64 -0.18 17.58 -0.12 0 1.83 c0 1.66 -2.84 8.64 -18.47 45.81 -5.68 13.55 -11.66 26.93 -12.49 27.99 -0.30 0.36 -1.48 0.71 -2.54 0.71 l-2.01 0 0.12 -38z"/>
  <path d="M255.68 344.40 c0 -1.66 6.33 -17.93 16.39 -41.96 l4.08 -9.77 2.90 -0.18 c1.54 -0.12 3.61 0.12 4.50 0.53 2.66 1.07 6.33 5.45 6.81 8.05 0.24 1.24 0.65 2.72 0.95 3.37 1.30 2.43 1.66 -0.95 1.66 -15.98 0 -16.63 0.06 -16.28 -3.20 -17.05 -1.60 -0.41 -1.66 -0.53 -1.42 -3.20 0.24 -2.43 4.79 -14.62 11.54 -30.60 l2.07 -5.03 2.78 0 2.72 0 16.45 38.47 c14.26 33.32 16.45 38.77 16.28 40.90 l-0.18 2.54 -7.69 2.78 c-4.26 1.54 -13.20 4.32 -19.83 6.16 -20.54 5.62 -33.32 10.24 -38.41 13.85 -0.95 0.71 -2.01 1.24 -2.37 1.24 -0.77 0 -4.38 2.25 -8.70 5.45 -2.19 1.66 -3.61 2.25 -5.15 2.25 -2.07 0 -2.19 -0.12 -2.19 -1.83z"/>
  <path d="M393.88 247.87 c-0.12 -0.41 -0.95 -3.43 -1.78 -6.63 -2.19 -8.52 -6.87 -20 -7.75 -19.12 -0.12 0.12 0.71 2.84 1.83 5.98 1.18 3.31 2.07 6.87 2.07 8.35 0 2.54 -0.06 2.66 -1.83 2.66 -4.79 0 -12.67 -5.86 -15.80 -11.72 -3.08 -5.74 -3.85 -10.30 -3.49 -20.24 0.18 -4.73 0.47 -9.06 0.77 -9.71 0.65 -1.66 6.10 -1.07 10.89 1.24 10.30 4.85 16.93 12.78 19.95 23.85 0.83 2.96 1.01 5.92 1.01 13.02 -0.06 11.36 -0.41 12.67 -3.37 12.90 -1.42 0.12 -2.31 -0.06 -2.49 -0.59z"/>
  <path d="M297.23 135.12 c-3.14 -15.92 -3.97 -18.58 -5.33 -18.05 -0.89 0.36 -3.14 1.60 -13.02 7.34 -1.83 1.07 -3.67 1.66 -5.27 1.66 -2.43 0 -2.54 -0.06 -2.54 -1.83 0 -1.89 1.42 -4.50 7.81 -14.44 1.89 -2.90 3.20 -5.50 2.96 -5.74 -0.41 -0.41 -25.04 -6.39 -26.28 -6.39 -0.95 0 -0.47 -3.97 0.59 -4.85 0.53 -0.47 4.08 -1.48 7.81 -2.19 10.36 -2.01 17.28 -3.85 17.58 -4.56 0.12 -0.41 -1.89 -4.14 -4.50 -8.35 -3.73 -5.98 -4.79 -8.17 -4.79 -9.82 l0 -2.19 2.84 0 c2.43 0.06 3.79 0.65 10.18 4.44 4.02 2.43 7.58 4.20 7.87 3.91 0.24 -0.24 1.72 -6.57 3.31 -14.03 l2.78 -13.55 2.66 0 2.60 0 2.13 10.36 c3.49 16.81 3.55 17.16 4.08 17.16 0.30 0 3.73 -1.83 7.63 -4.14 6.27 -3.61 7.52 -4.14 10.12 -4.14 l2.96 0 0 2.01 c0 1.48 -1.24 4.02 -4.73 9.71 -2.60 4.20 -4.73 7.93 -4.73 8.23 0 0.77 0.18 0.83 14.80 4.08 15.57 3.43 14.20 2.90 14.20 5.27 0 2.37 1.01 2.01 -16.22 5.86 -6.27 1.42 -11.84 2.78 -12.31 3.08 -0.77 0.47 0.06 2.13 4.91 9.88 3.91 6.27 5.86 10 5.86 11.13 0 1.60 -0.12 1.72 -2.49 1.72 -1.95 0 -3.61 -0.65 -7.28 -2.84 -2.60 -1.54 -6.51 -3.85 -8.70 -5.03 -3.67 -2.07 -4.02 -2.13 -4.56 -1.12 -0.53 1.01 -3.02 12.78 -5.09 24.27 l-1.01 5.45 -2.25 0 -2.19 0 -2.43 -12.25z"/>
 </g>
 <g fill="#b77402">
  <path d="M297.11 548.53 c-8.17 -5.45 -16.51 -15.51 -20.54 -24.86 -2.37 -5.39 -4.32 -13.91 -4.32 -18.82 l0 -3.26 -6.10 -3.91 c-3.31 -2.19 -7.16 -4.50 -8.58 -5.21 l-2.54 -1.30 -1.89 1.36 c-1.07 0.71 -4.32 3.08 -7.28 5.27 -15.09 11.19 -24.74 15.15 -38.23 15.74 -8.64 0.41 -14.86 -0.47 -22.96 -3.14 -6.51 -2.19 -15.09 -6.57 -17.28 -8.94 l-1.24 -1.36 1.36 -1.48 c2.49 -2.66 11.48 -8.64 17.34 -11.60 7.40 -3.73 14.62 -6.16 21.72 -7.34 6.39 -1.01 21.48 -1.18 26.87 -0.30 6.92 1.12 7.69 1.66 -26.28 -18.82 -10.59 -6.33 -21.48 -12.61 -24.21 -13.85 -5.86 -2.72 -13.44 -4.85 -21.66 -6.10 -5.45 -0.83 -14.50 -1.24 -14.50 -0.65 0 0.12 0.41 1.83 0.89 3.73 1.07 4.08 0.47 8.58 -1.54 11.78 -1.89 3.14 -6.16 6.51 -9.17 7.34 -5.21 1.48 -11.78 -0.95 -15.33 -5.62 -6.10 -7.93 -3.02 -19.77 5.80 -22.25 1.36 -0.41 2.72 -0.95 3.08 -1.24 1.01 -0.89 25.98 -0.53 32.67 0.47 3.43 0.47 6.33 0.83 6.39 0.71 0.12 -0.12 -4.20 -4.68 -9.59 -10.12 l-9.77 -9.94 -6.27 0.71 c-21.60 2.49 -40.42 0.47 -54.98 -5.80 -12.43 -5.45 -24.50 -14.91 -30.60 -24.21 -1.60 -2.43 -1.60 -4.38 -0.06 -4.38 0.41 0 2.13 -0.65 3.73 -1.48 1.66 -0.83 5.09 -2.01 7.63 -2.66 5.62 -1.48 19.06 -2.60 24.74 -2.07 8.17 0.71 17.58 3.49 26.87 7.75 3.08 1.42 5.68 2.54 5.80 2.43 0.12 -0.12 -1.18 -2.60 -2.84 -5.50 -5.27 -9 -14.86 -30.30 -16.28 -35.93 -0.47 -2.01 -1.36 -2.43 -7.87 -3.67 -15.98 -3.08 -29.42 -10.06 -40.31 -21.01 -10.48 -10.42 -17.99 -24.09 -19.89 -35.93 -0.36 -2.31 -0.30 -2.49 1.18 -2.90 0.83 -0.18 4.14 0.06 7.28 0.59 11.66 1.95 22.79 6.87 32.79 14.38 6.10 4.62 10.36 8.88 16.04 16.22 2.01 2.54 3.73 4.56 3.85 4.44 0.12 -0.12 -0.18 -4.14 -0.71 -9 -0.53 -4.91 -1.18 -17.58 -1.42 -28.65 l-0.41 -19.83 -2.25 -6.51 c-2.54 -7.63 -6.81 -15.86 -8.23 -16.16 -0.59 -0.12 -2.07 0.71 -3.31 1.83 -3.67 3.31 -6.04 4.14 -10.30 3.85 -4.26 -0.36 -6.69 -1.42 -9.47 -4.26 -3.02 -3.02 -4.20 -5.98 -4.20 -10.42 0 -4.68 1.42 -7.81 5.09 -10.89 2.84 -2.49 5.39 -3.31 9.94 -3.31 6.39 0 11.90 4.02 14.03 10.18 0.59 1.72 2.07 5.03 3.31 7.28 1.18 2.31 3.73 7.16 5.56 10.83 1.89 3.61 3.61 6.63 3.85 6.63 0.18 0 0.71 -1.54 1.07 -3.37 1.30 -6.87 4.38 -19.06 6.87 -27.34 1.42 -4.68 2.60 -9.06 2.60 -9.65 0 -0.59 -1.54 -3.02 -3.49 -5.45 -15.92 -20.06 -20.83 -43.86 -14.50 -70.19 1.95 -8.05 4.44 -14.44 5.68 -14.68 1.42 -0.30 5.98 4.08 9.88 9.35 10.59 14.20 15.92 33.03 14.32 50.90 -0.30 3.43 -0.41 6.33 -0.36 6.39 0.12 0.12 1.48 -1.72 3.02 -4.14 4.62 -7.10 12.43 -18.82 15.86 -23.67 2.72 -3.85 3.26 -5.09 3.61 -7.99 2.25 -20.30 10.65 -35.45 25.98 -47.05 8.17 -6.16 21.01 -11.72 27.11 -11.72 l2.25 0 0 3.43 c-0.06 6.63 -2.66 16.16 -6.87 24.56 -6.27 12.61 -15.80 22.67 -28.59 30.01 -2.90 1.72 -5.62 3.43 -6.04 3.91 -0.36 0.47 -1.12 0.83 -1.72 0.83 -1.60 0 -7.34 4.14 -9.53 6.81 -5.09 6.33 -14.38 22.19 -13.08 22.19 0.30 0 3.43 -2.31 6.98 -5.15 19.47 -15.45 35.33 -21.60 55.87 -21.72 10.06 -0.06 15.27 0.47 16.93 1.72 1.07 0.77 1.07 0.95 -0.53 4.02 -3.85 7.46 -12.49 16.39 -21.48 22.19 -2.01 1.30 -3.79 2.66 -4.02 2.96 -0.18 0.36 -1.24 0.83 -2.31 1.07 -1.01 0.18 -3.14 1.01 -4.73 1.72 -1.54 0.77 -5.15 2.13 -7.99 3.08 -4.85 1.54 -5.74 1.66 -15.80 1.66 -5.86 0 -13.73 -0.24 -17.46 -0.47 -6.33 -0.47 -6.92 -0.41 -8.70 0.71 -4.73 3.02 -13.02 17.52 -17.10 29.95 -4.26 13.20 -7.34 27.58 -7.34 34.56 l0 3.91 2.25 -3.85 c9.47 -16.16 20.06 -26.46 34.15 -33.14 9.41 -4.50 22.85 -7.40 23.73 -5.15 0.41 1.18 -1.24 9.35 -2.96 14.50 -5.27 15.33 -19.35 32.20 -33.20 39.54 -1.60 0.89 -3.49 2.07 -4.14 2.60 -0.65 0.59 -1.83 1.24 -2.66 1.48 -0.83 0.24 -2.66 0.95 -4.14 1.60 -1.48 0.65 -3.20 1.42 -3.85 1.66 -0.65 0.30 -2.90 0.95 -5.03 1.48 -2.13 0.53 -4.50 1.36 -5.27 1.89 l-1.42 0.89 0.36 11.07 c0.59 17.46 2.90 30.07 8.76 47.70 1.95 5.86 4.73 13.08 6.21 15.98 l2.60 5.33 -0.30 -5.33 c-1.30 -24.80 7.52 -48.95 24.27 -66.41 5.21 -5.39 6.57 -5.98 8.46 -3.26 2.31 3.20 7.10 13.55 9.17 19.65 5.98 17.58 6.81 37.11 2.13 51.67 -2.54 7.93 -11.01 22.31 -13.14 22.31 -1.01 0 -3.37 -2.19 -3.37 -3.14 0 -0.41 0.95 -2.31 2.13 -4.20 8.17 -13.55 11.30 -25.33 10.71 -39.71 -0.36 -8.23 -1.54 -14.91 -4.08 -22.79 -2.43 -7.52 -6.10 -15.39 -7.22 -15.39 -1.89 0 -9.35 10.30 -13.61 18.82 -2.66 5.27 -5.80 14.62 -7.16 21.13 -2.49 11.72 -1.60 27.52 2.07 38.83 2.37 7.16 7.81 17.76 8.70 16.93 0.12 -0.18 -0.18 -3.85 -0.77 -8.17 -1.30 -10.42 -0.89 -26.63 0.95 -37.23 1.48 -8.58 2.37 -10.30 5.50 -10.54 2.66 -0.24 2.66 -0.47 1.01 10.54 -2.31 15.21 -2.19 30.72 0.30 42.79 1.36 6.51 4.56 16.51 5.45 16.81 0.47 0.18 5.50 -0.12 11.30 -0.65 50.54 -4.68 95.17 7.22 129.44 34.45 2.96 2.37 5.62 4.26 5.98 4.26 0.71 0 3.79 -2.19 7.22 -5.09 7.87 -6.63 24.27 -16.28 36.22 -21.31 12.01 -4.97 26.52 -8.76 43.38 -11.25 13.67 -2.01 38.47 -2.60 51.02 -1.18 6.45 0.71 8.35 0.77 8.70 0.18 0.95 -1.36 3.49 -10.48 4.62 -16.34 2.84 -14.56 2.84 -31.07 0 -46.46 -1.30 -7.28 -1.12 -8.05 2.13 -8.05 2.49 0 2.72 0.47 4.32 8.76 2.72 13.67 3.08 29.53 0.95 42.97 -0.47 3.20 -0.77 5.98 -0.65 6.16 0.18 0.12 1.18 -1.18 2.31 -2.90 7.10 -11.13 10.48 -23.50 10.48 -38.47 0 -15.63 -4.50 -31.01 -12.90 -44.03 -3.26 -5.09 -8.46 -11.54 -9.35 -11.54 -1.78 0 -8.29 18.05 -10.12 27.94 -1.54 8.35 -1.42 21.78 0.30 28.41 1.78 7.28 4.32 13.49 8.17 20.18 3.20 5.62 3.26 5.86 2.37 7.28 -1.83 2.78 -3.31 1.95 -7.46 -4.26 -4.44 -6.75 -7.16 -12.84 -9.29 -20.77 -1.36 -5.15 -1.54 -6.98 -1.60 -16.16 -0.06 -11.72 1.07 -18.76 4.79 -30.18 2.07 -6.39 6.87 -17.05 9.06 -20.12 2.01 -2.78 3.20 -2.31 8.82 3.37 10.59 10.77 18.41 25.57 22.02 41.79 0.95 4.14 1.30 8.35 1.54 17.58 l0.30 12.13 1.66 -3.26 c7.04 -13.97 13.02 -35.39 15.09 -53.92 1.12 -10 1.18 -23.26 0.18 -24.03 -0.41 -0.30 -3.55 -1.42 -6.98 -2.49 -27.64 -8.58 -48.59 -30.30 -53.74 -55.75 -0.65 -3.08 -1.01 -5.92 -0.83 -6.39 0.47 -1.18 7.46 -0.47 13.91 1.42 17.46 5.03 32.61 17.64 43.09 35.87 l3.20 5.56 0.18 -2.96 c0.53 -8.11 -6.27 -35.04 -12.07 -47.59 -2.66 -5.86 -9.17 -15.51 -11.96 -17.81 -2.07 -1.78 -2.37 -1.83 -6.04 -1.54 -12.01 1.07 -21.19 1.07 -27.82 0.12 -15.33 -2.25 -29.24 -9.06 -39.71 -19.47 -4.20 -4.14 -9 -10.59 -10.65 -14.26 -1.42 -3.08 0.41 -3.55 15.74 -4.26 13.20 -0.59 23.97 1.83 36.52 8.11 8.88 4.44 10.89 5.80 26.99 18.47 1.83 1.42 1.18 -0.53 -1.95 -6.21 -4.02 -7.28 -11.30 -17.40 -13.73 -19.18 -0.95 -0.71 -4.97 -3.08 -8.94 -5.21 -9.17 -4.91 -12.96 -7.52 -18.35 -12.49 -12.19 -11.30 -21.07 -29.42 -22.14 -45.28 l-0.18 -2.66 2.49 -0.18 c8.11 -0.59 23.44 7.22 33.74 17.22 10.65 10.30 16.69 22.73 18.76 38.23 0.83 6.51 0.83 6.57 4.14 11.13 5.27 7.40 13.08 19.18 14.80 22.37 0.89 1.66 2.13 3.61 2.78 4.44 l1.18 1.48 -0.36 -7.40 c-0.89 -17.34 3.08 -33.26 11.60 -46.22 3.85 -5.86 10.83 -13.55 12.31 -13.55 1.89 0 5.74 10.30 7.87 21.01 1.66 8.29 1.78 21.19 0.30 28.59 -1.30 6.39 -3.97 14.38 -6.57 19.47 -2.25 4.50 -7.87 13.14 -11.54 17.64 l-2.37 3.02 1.36 4.97 c0.77 2.78 2.37 8.23 3.55 12.13 1.12 3.91 2.90 10.59 3.91 14.80 1.01 4.26 1.95 8.11 2.13 8.58 0.18 0.53 1.54 -1.60 3.37 -5.33 1.72 -3.43 4.08 -7.81 5.27 -9.77 1.24 -1.95 2.72 -5.27 3.37 -7.40 2.25 -7.22 7.10 -11.19 14.32 -11.72 4.73 -0.30 7.28 0.41 10.48 3.14 5.15 4.44 6.57 11.78 3.49 17.87 -4.44 8.64 -14.97 10.48 -22.25 3.97 -1.60 -1.42 -3.14 -2.60 -3.43 -2.60 -0.71 0 -5.50 9.53 -7.63 15.09 -3.31 8.76 -3.31 8.76 -3.79 31.96 -0.24 12.07 -0.77 24.21 -1.18 27.05 -0.36 2.84 -0.59 5.62 -0.47 6.16 0.12 0.65 1.60 -0.95 4.14 -4.32 4.62 -6.27 12.07 -13.44 18.35 -17.81 9.88 -6.81 23.20 -11.72 33.50 -12.37 l5.45 -0.36 0 1.48 c0 2.72 -2.43 10.83 -4.79 15.80 -4.73 10.12 -12.13 19.53 -21.84 27.58 -2.54 2.13 -4.79 3.85 -5.09 3.85 -0.24 0 -0.89 0.36 -1.36 0.83 -0.53 0.41 -2.66 1.54 -4.79 2.49 -2.13 0.89 -4.44 2.13 -5.21 2.66 -1.95 1.48 -11.84 4.26 -17.87 5.03 -5.62 0.65 -6.45 1.60 -9.71 9.82 -3.31 8.46 -10.89 24.27 -14.74 30.66 -1.48 2.43 -2.43 4.50 -2.19 4.62 0.24 0.12 3.26 -1.18 6.63 -2.78 14.56 -7.10 36.28 -9.71 50.01 -6.10 5.80 1.60 12.37 4.14 13.26 5.21 1.18 1.42 -0.77 4.44 -7.46 11.36 -5.56 5.80 -13.97 12.19 -19.83 15.03 -1.12 0.59 -2.49 1.30 -2.96 1.60 -3.08 1.83 -12.72 4.68 -20.54 5.98 -8.40 1.42 -20.36 1.54 -30.66 0.30 -12.43 -1.48 -10.36 -2.37 -21.60 9.29 l-9.77 10.12 2.96 -0.36 c8.58 -1.12 19.47 -1.66 28.76 -1.48 l10.42 0.18 2.90 1.78 c4.26 2.66 6.39 6.45 6.63 11.90 0.18 3.49 0 4.85 -1.01 6.87 -2.31 4.85 -8.35 9.35 -12.55 9.35 -10.65 0 -18.41 -10.59 -15.03 -20.71 0.53 -1.66 0.89 -3.20 0.71 -3.37 -0.36 -0.30 -16.75 1.83 -21.72 2.84 -4.32 0.89 -14.38 4.20 -16.28 5.39 -0.95 0.59 -2.72 1.48 -3.85 2.01 -1.12 0.53 -4.08 2.19 -6.51 3.67 -2.43 1.48 -10.54 6.39 -18.05 10.95 -16.99 10.30 -22.49 13.79 -23.50 15.03 -0.71 0.89 -0.59 0.95 1.01 0.53 3.67 -0.83 25.39 -1.12 29.59 -0.41 5.39 0.95 13.38 3.61 19.41 6.51 9.06 4.38 20.54 13.02 19.83 14.91 -0.41 1.12 -11.84 7.87 -15.86 9.35 -6.27 2.31 -12.55 3.61 -18.05 3.61 -17.76 0 -30.42 -4.62 -47.11 -17.22 -3.67 -2.72 -6.75 -4.62 -7.58 -4.68 -1.66 0 -6.21 2.43 -12.25 6.63 l-4.20 2.84 -0.36 4.91 c-0.71 10 -4.79 20.71 -10.95 28.82 -5.33 7.04 -15.86 15.98 -18.82 15.98 -0.71 0 -2.96 -1.12 -4.97 -2.49z m13.08 -11.66 c7.04 -7.04 11.60 -14.80 13.49 -22.85 1.36 -5.80 1.36 -5.62 0.18 -5.62 -3.08 0 -13.97 13.55 -18.41 22.90 -2.90 6.10 -4.44 6.33 -6.63 0.95 -3.02 -7.46 -9.17 -16.16 -14.80 -20.89 -3.97 -3.31 -4.85 -2.96 -3.79 1.66 2.54 10.77 8.94 20.89 17.64 27.70 3.55 2.78 4.20 3.08 5.33 2.49 0.71 -0.36 3.85 -3.20 6.98 -6.33z m-4.32 -19.89 c4.02 -5.45 8.82 -10.42 14.50 -15.09 2.72 -2.25 3.97 -3.67 3.97 -4.56 0 -2.43 -3.67 -12.84 -6.63 -18.82 -4.79 -9.65 -13.44 -21.60 -15.57 -21.60 -1.18 0 -6.87 6.57 -10.54 12.07 -5.62 8.46 -10.54 19.59 -11.90 27.05 -0.36 2.13 -0.30 2.19 5.03 6.81 5.74 4.91 12.01 11.66 15.27 16.45 1.07 1.54 2.01 2.72 2.13 2.60 0.12 -0.12 1.78 -2.31 3.73 -4.91z m-92.98 -10.65 c10.18 -2.13 19.59 -6.69 29.95 -14.44 1.54 -1.12 2.78 -2.31 2.78 -2.54 0 -0.59 -5.21 -2.07 -11.48 -3.14 -5.98 -1.01 -19.24 -1.18 -25.51 -0.30 -9.17 1.30 -21.60 6.27 -28.94 11.66 l-2.96 2.13 2.66 1.36 c3.49 1.83 13.02 4.91 17.10 5.50 5.27 0.83 12.07 0.71 16.39 -0.24z m200.34 -0.77 c5.86 -1.78 13.20 -5.03 13.20 -5.98 0 -1.07 -10 -7.28 -15.51 -9.53 -2.49 -1.07 -7.04 -2.54 -10.12 -3.31 -13.32 -3.37 -45.04 -0.59 -41.49 3.67 1.48 1.78 9.82 7.28 15.03 9.88 5.92 2.96 13.49 5.50 18.94 6.33 5.39 0.83 15.33 0.30 19.95 -1.07z m-132.93 -30.84 c3.49 -6.63 8.17 -13.49 12.90 -19 l3.85 -4.44 -1.60 -1.66 c-5.50 -5.86 -18.88 -14.68 -31.72 -20.89 -10.36 -5.03 -18.88 -7.99 -28.65 -10 -7.34 -1.54 -9.94 -1.78 -10.42 -1.01 -0.18 0.30 1.95 2.13 4.68 4.20 13.55 10 20.66 22.43 21.90 38.23 0.41 5.92 -0.12 8.23 -2.13 8.46 -2.43 0.30 -3.37 -1.48 -4.08 -7.28 -1.72 -14.86 -7.93 -25.75 -19.77 -34.45 -3.67 -2.72 -4.73 -3.02 -6.51 -1.66 -1.07 0.83 -1.07 0.95 0.18 6.33 2.43 10.59 8.64 20.42 16.75 26.75 4.85 3.85 5.56 5.21 3.49 7.10 -1.48 1.30 -2.84 0.77 -8.70 -3.67 -6.27 -4.79 -11.48 -11.78 -15.45 -20.89 -2.96 -6.81 -3.91 -11.66 -3.85 -19.59 0 -5.92 -0.12 -6.98 -0.95 -7.34 -1.83 -0.83 -35.45 -1.01 -42.61 -0.24 -3.67 0.41 -6.81 0.95 -6.98 1.24 -0.47 0.77 13.38 14.32 20.48 20 9.53 7.63 27.88 19.35 60.25 38.47 5.27 3.14 14.62 8.94 20.66 12.90 l11.07 7.16 2.25 -6.81 c1.24 -3.79 3.49 -9.17 4.97 -11.96z m78.07 1.42 c4.56 -2.66 11.19 -6.63 14.74 -8.88 3.55 -2.19 7.58 -4.44 8.94 -5.03 1.42 -0.59 2.72 -1.36 2.90 -1.72 0.24 -0.36 3.91 -2.78 8.23 -5.45 21.43 -13.26 31.37 -20.77 43.32 -32.67 6.69 -6.69 7.52 -7.75 6.51 -8.11 -1.83 -0.65 -15.63 -1.78 -22.14 -1.78 -6.75 0 -23.02 1.07 -26.10 1.72 l-2.07 0.41 0.18 4.44 c0.65 13.44 -4.50 27.23 -13.91 37.23 -4.56 4.85 -10.83 9.47 -12.90 9.47 -1.60 0 -2.66 -1.07 -2.66 -2.72 0 -0.95 1.18 -2.19 4.14 -4.32 9.41 -6.87 16.87 -19.95 18.64 -32.73 0.36 -2.78 0.36 -2.84 -1.30 -2.84 -2.13 0 -10.95 6.51 -14.56 10.83 -7.16 8.40 -10.24 15.98 -11.96 29.12 -0.47 3.79 -1.66 5.62 -3.55 5.62 -2.19 0 -2.84 -2.25 -2.37 -8.17 1.24 -16.04 8.46 -28.65 22.37 -39.06 l5.33 -3.97 -2.43 -0.18 c-3.08 -0.24 -13.85 2.31 -22.61 5.33 -12.49 4.38 -27.17 12.01 -37.58 19.71 -4.56 3.37 -9.94 7.87 -10.24 8.58 -0.12 0.30 1.30 2.19 3.14 4.20 7.28 8.17 14.44 20.66 18.41 32.08 l2.13 6.21 9.53 -6.21 c5.27 -3.43 13.32 -8.46 17.87 -11.13z m-221.71 -20.12 c4.38 -2.25 6.21 -6.81 4.50 -11.25 -1.36 -3.73 -3.49 -5.03 -7.87 -5.03 -3.91 0 -5.98 1.12 -7.52 4.14 -3.67 7.16 4.02 15.68 10.89 12.13z m338.96 -1.01 c2.31 -2.01 3.79 -4.85 3.79 -7.10 0 -0.71 -0.53 -2.37 -1.18 -3.73 -3.02 -6.21 -11.19 -6.57 -14.86 -0.71 -0.89 1.48 -1.12 2.60 -0.95 5.03 0.24 3.61 1.60 5.68 4.56 7.28 3.20 1.72 6.10 1.48 8.64 -0.77z m-337.71 -45.51 c2.78 -0.30 5.27 -0.83 5.50 -1.07 0.71 -0.71 -9.35 -10 -15.27 -14.03 -9.77 -6.69 -21.01 -11.25 -31.01 -12.72 -9.11 -1.30 -25.51 0.30 -29.59 2.84 l-1.36 0.89 3.14 3.26 c10.77 10.95 27.64 18.88 44.45 20.83 6.33 0.71 18.41 0.77 24.15 0z m353.63 0 c10.95 -1.48 22.85 -5.98 31.90 -12.01 5.03 -3.37 13.97 -11.42 13.97 -12.55 0 -0.41 -2.19 -1.30 -4.85 -2.07 -5.98 -1.66 -21.07 -2.31 -26.52 -1.12 -18.70 4.02 -29.89 9.88 -41.67 21.84 -4.44 4.44 -4.62 4.73 -3.26 5.03 5.98 1.42 23.20 1.89 30.42 0.89z m-392.40 -82.68 c-9.47 -18.23 -25.27 -32.08 -42.79 -37.64 -5.33 -1.66 -8.40 -1.95 -8.40 -0.77 0 0.36 0.89 2.78 2.01 5.27 5.86 13.44 18.11 26.46 31.01 32.97 6.75 3.43 15.98 6.45 19.83 6.51 l1.66 0.06 -3.31 -6.39z m412.46 4.26 c19.24 -5.45 35.81 -20.83 43.56 -40.54 l1.24 -3.02 -2.54 0.30 c-6.81 0.71 -17.22 5.09 -25.21 10.59 -6.10 4.20 -13.85 12.07 -18.23 18.53 -4.02 5.86 -8.52 14.09 -8.52 15.51 0 1.12 1.95 0.83 9.71 -1.36z m-19.18 -56.64 c0 -0.12 -0.65 -2.07 -1.42 -4.32 -7.10 -20.77 -23.02 -37.17 -42.73 -43.80 -5.92 -1.95 -6.39 -1.78 -5.21 2.25 4.79 16.22 18.53 32.02 35.16 40.42 5.62 2.84 14.20 6.10 14.20 5.45z m-373.28 -2.54 c16.34 -6.27 29.47 -17.99 37.23 -33.08 2.84 -5.56 5.56 -13.14 4.97 -13.73 -0.71 -0.71 -8.35 1.83 -13.79 4.62 -12.43 6.33 -22.49 16.16 -29.59 28.94 -1.89 3.37 -6.10 13.55 -6.10 14.74 0 1.07 1.54 0.77 7.28 -1.48z m-38.88 -38.77 c5.15 -4.79 3.67 -12.31 -2.84 -14.26 -1.83 -0.53 -2.66 -0.47 -4.91 0.36 -6.10 2.37 -7.28 9.59 -2.25 13.97 1.95 1.72 2.43 1.89 5.33 1.66 2.25 -0.18 3.55 -0.65 4.68 -1.72z m453.66 -0.47 c2.13 -2.13 2.31 -2.54 2.31 -5.68 0 -3.14 -0.18 -3.55 -2.31 -5.68 -2.07 -2.13 -2.54 -2.31 -5.45 -2.31 -5.39 0 -8.40 2.66 -8.40 7.40 0 5.09 3.49 8.58 8.70 8.58 2.54 0 3.14 -0.24 5.15 -2.31z m-417.38 -43.03 c1.12 -5.33 1.42 -8.29 1.48 -17.40 0.06 -11.66 -0.47 -15.68 -3.02 -23.67 -2.60 -7.99 -9.82 -20.71 -11.78 -20.71 -0.95 0 -2.90 8.40 -3.85 16.57 -1.36 12.31 0.53 25.51 5.27 36.58 2.60 6.04 8.76 15.68 9.77 15.33 0.41 -0.12 1.36 -3.14 2.13 -6.69z m375.47 3.55 c3.55 -4.56 9.11 -16.39 10.83 -23.02 1.89 -7.10 2.54 -20.36 1.48 -27.52 -1.24 -7.87 -3.08 -14.80 -3.91 -14.80 -1.07 0 -5.56 6.33 -8.17 11.54 -5.27 10.65 -7.16 19.95 -6.81 34.03 0.24 10.24 2.37 23.32 3.73 22.90 0.30 -0.12 1.60 -1.54 2.84 -3.14z m-323.75 -8.23 c10.77 -1.89 21.43 -6.92 29.83 -14.15 3.26 -2.72 9.65 -9.77 9.65 -10.54 0 -0.83 -14.38 -0.47 -19.83 0.47 -10.36 1.78 -21.13 6.16 -30.84 12.55 -5.09 3.31 -13.26 10.36 -13.26 11.42 0 1.18 17.93 1.36 24.44 0.24z m291.67 -0.12 c0.41 -0.41 -0.89 -1.95 -4.02 -4.62 -11.30 -9.88 -25.57 -16.99 -39.30 -19.53 -5.92 -1.07 -19.53 -1.07 -19.89 0.06 -0.30 0.95 3.91 5.74 8.58 9.77 8.35 7.28 21.01 13.02 32.97 14.91 3.14 0.53 21.07 0 21.66 -0.59z m-299.36 -41.96 c16.75 -8.40 28.17 -22.02 33.26 -39.65 0.83 -2.78 1.48 -5.33 1.48 -5.62 0 -1.18 -3.85 -0.41 -7.87 1.60 -16.22 8.23 -27.70 21.84 -31.78 37.88 -1.12 4.32 -1.54 8.52 -0.89 8.52 0.18 0 2.78 -1.24 5.80 -2.72z m288.41 -0.06 c-2.60 -18.35 -14.26 -34.09 -31.84 -43.09 -6.27 -3.26 -7.81 -3.73 -8.40 -2.72 -0.71 1.07 2.72 11.19 5.86 17.52 6.33 12.72 14.68 21.13 28.29 28.47 6.27 3.37 6.57 3.37 6.10 -0.18z"/>
  <path d="M116.60 402.11 c-2.78 -0.77 -8.88 -2.07 -13.55 -2.84 -5.03 -0.83 -8.70 -1.78 -9.06 -2.25 -0.24 -0.41 -0.41 -1.42 -0.36 -2.25 0.18 -1.42 0.41 -1.48 4.32 -1.66 5.33 -0.24 11.60 0.71 18.64 2.96 6.45 2.01 8.29 3.02 8.29 4.56 0 1.12 -1.78 3.08 -2.72 2.96 -0.30 -0.06 -2.78 -0.71 -5.56 -1.48z"/>
  <path d="M480.11 402.94 c-1.12 -1.12 -0.83 -3.20 0.65 -4.14 3.43 -2.31 15.45 -5.33 23.62 -6.10 4.26 -0.36 4.56 -0.30 5.21 0.89 1.07 1.95 0.30 3.97 -1.60 4.38 -0.95 0.18 -5.80 1.12 -10.83 2.07 -5.03 1.01 -10.65 2.19 -12.43 2.72 -3.97 1.07 -3.73 1.07 -4.62 0.18z"/>
  <path d="M188.98 387.31 c-1.36 -2.13 -0.41 -3.37 2.84 -3.85 7.99 -1.18 11.48 -3.79 13.38 -9.88 1.01 -3.14 1.07 -8.35 1.07 -80.31 0 -83.93 0.12 -80.31 -3.43 -84.64 -2.19 -2.72 -4.38 -3.67 -9.53 -4.20 -4.20 -0.41 -5.50 -1.48 -4.79 -3.79 0.36 -1.18 1.24 -1.18 53.33 -1.18 l52.91 0 0 1.36 c0 1.95 -4.56 11.07 -5.50 11.07 -0.41 0 -1.42 -0.71 -2.25 -1.54 -2.78 -3.08 -3.37 -3.14 -25.09 -2.78 -11.07 0.12 -21.01 0.53 -22.02 0.89 l-1.95 0.59 0 38.12 0 38.12 22.08 0 c20.60 0 22.14 -0.06 23.85 -1.12 2.19 -1.36 4.56 -5.86 4.26 -8.17 -0.18 -1.66 -0.24 -1.66 -4.32 -1.66 -3.79 0 -4.14 -0.12 -4.32 -1.30 -0.12 -0.71 0.77 -3.49 1.95 -6.21 2.90 -6.51 11.19 -26.63 23.08 -56.11 9.41 -23.38 9 -22.49 11.25 -22.49 2.43 0 3.14 0.89 6.04 7.69 1.36 3.08 5.92 13.73 10.24 23.67 18.53 42.73 29.59 69.01 29.59 70.08 0 1.36 -3.02 3.37 -4.68 3.20 -1.66 -0.18 0.12 3.79 -28.47 -62.80 -9.65 -22.49 -11.01 -25.33 -12.07 -25.15 -1.01 0.12 -1.95 1.89 -4.62 8.58 l-3.43 8.40 2.01 4.62 c3.67 8.35 21.54 50.37 27.40 64.39 1.72 4.20 4.26 10.12 5.56 13.14 l2.43 5.45 4.20 -2.13 c17.76 -8.94 33.50 -25.69 37.94 -40.42 2.13 -7.04 2.25 -20.89 0.24 -22.85 -0.41 -0.36 -2.25 -1.12 -4.02 -1.72 -15.39 -4.85 -23.56 -20 -21.31 -39.18 0.41 -3.20 1.12 -7.10 1.66 -8.76 0.89 -2.54 1.24 -2.96 2.72 -3.14 4.56 -0.53 16.39 4.73 22.73 10.06 9.77 8.35 14.50 19.47 14.50 34.21 0 12.07 -2.43 21.13 -9.41 35.22 -7.34 14.86 -15.98 25.39 -28.47 34.80 -3.31 2.49 -6.16 4.56 -6.27 4.56 -0.18 0 -3.31 1.72 -6.98 3.73 -7.34 4.14 -8.46 4.62 -15.92 7.46 -2.78 1.07 -5.50 2.13 -6.04 2.43 -0.53 0.30 -3.43 1.18 -6.51 2.01 -3.02 0.83 -8.40 2.25 -12.01 3.26 -3.55 1.01 -8.46 2.37 -10.89 3.02 -2.37 0.65 -4.68 1.42 -5.03 1.72 -0.36 0.24 -1.30 0.65 -2.13 0.83 -3.08 0.65 -17.64 6.21 -21.01 8.11 -10.12 5.45 -19.18 13.08 -23.79 20.06 -2.01 3.02 -7.10 13.73 -8.11 17.10 l-0.41 1.30 16.22 0 c20.66 0 28.29 -1.18 38.65 -6.04 7.34 -3.43 13.91 -11.36 16.81 -20.30 0.41 -1.24 1.30 -2.78 2.01 -3.37 1.72 -1.42 4.14 -1.12 4.38 0.53 0.18 1.18 -8.82 28.71 -11.19 34.39 l-1.07 2.49 -58.59 0 -58.65 0 -1.01 -1.54z m115.18 -6.81 c0.89 -2.54 0.83 -2.90 -0.47 -2.90 -1.30 0 -6.16 2.60 -7.16 3.85 -0.65 0.77 -0.18 0.89 3.14 0.89 3.79 0 3.85 -0.06 4.50 -1.83z m-74.63 -86.47 l-0.18 -87.77 -7.99 -0.18 c-4.38 -0.06 -8.35 0.12 -8.82 0.41 -0.77 0.47 -0.71 0.89 0.12 2.84 0.53 1.24 1.24 3.31 1.60 4.62 0.36 1.60 0.59 27.88 0.59 78.72 0 81.68 0 80.91 -2.90 86.65 l-1.24 2.43 9.47 0 9.47 0 -0.12 -87.71z m13.85 62.26 c3.85 -8.64 6.33 -14.44 19.35 -45.57 l7.10 -16.87 -15.21 -0.18 c-8.35 -0.06 -15.51 0 -15.92 0.18 -0.59 0.18 -0.77 7.81 -0.77 36.52 0 30.84 0.12 36.10 0.83 35.39 0.41 -0.47 2.54 -4.73 4.62 -9.47z m17.87 -14.09 c4.32 -3.20 7.93 -5.45 8.70 -5.45 0.36 0 1.42 -0.53 2.37 -1.24 5.09 -3.61 17.87 -8.23 38.29 -13.85 13.49 -3.67 27.34 -8.46 27.76 -9.59 0.18 -0.41 -7.10 -18.05 -16.22 -39.24 -12.25 -28.59 -16.69 -38.47 -17.40 -38.47 -1.07 0 -2.13 2.25 -9.65 21.13 -5.74 14.50 -5.50 13.67 -3.49 14.15 3.20 0.77 3.14 0.30 3.14 18.82 0 9.47 -0.24 17.52 -0.47 17.87 -0.24 0.36 -1.01 0.83 -1.72 1.07 -1.83 0.59 -3.43 -1.24 -3.97 -4.38 -0.65 -4.26 -7.10 -9.82 -10 -8.70 -0.41 0.12 -1.72 2.66 -2.90 5.50 -4.08 9.88 -16.22 39.60 -17.22 42.14 -0.53 1.36 -0.83 2.49 -0.59 2.49 0.18 0 1.72 -1.01 3.37 -2.25z m136.60 -101.56 c0.83 -6.10 0.06 -13.85 -1.95 -19.71 -2.49 -7.52 -8.29 -14.44 -15.45 -18.70 -4.02 -2.37 -9.65 -4.44 -10.36 -3.79 -0.65 0.65 -1.24 6.16 -1.30 11.36 -0.06 9.06 2.96 17.05 8.35 21.90 3.43 3.08 8.94 5.92 9.23 4.79 0.12 -0.47 -0.95 -3.79 -2.25 -7.40 -1.36 -3.67 -2.37 -7.22 -2.25 -7.93 0.24 -1.66 3.08 -2.13 4.62 -0.71 1.42 1.30 5.56 11.84 7.40 19 0.89 3.20 1.66 6.21 1.83 6.69 0.59 1.78 1.48 -0.47 2.13 -5.50z"/>
  <path d="M353.10 387.90 c-1.24 -1.24 -1.18 -3.61 0.12 -4.26 0.53 -0.30 2.31 -0.77 3.91 -1.01 3.55 -0.47 5.92 -2.60 6.81 -6.10 1.07 -3.91 0.89 -4.50 -10.83 -31.43 -3.73 -8.58 -6.63 -15.98 -6.45 -16.39 0.30 -0.89 3.31 -2.01 5.33 -2.01 1.07 0 1.66 0.53 2.31 2.25 0.53 1.18 4.20 9.94 8.23 19.35 4.02 9.47 7.75 18.76 8.29 20.66 0.95 3.26 1.01 6.10 0.18 11.90 -0.18 1.12 0.18 1.18 11.66 1.36 6.51 0.06 12.13 0 12.61 -0.18 0.59 -0.24 0.41 -0.89 -0.77 -2.78 -0.89 -1.42 -3.26 -5.98 -5.33 -10.24 -5.09 -10.54 -22.19 -50.37 -22.19 -51.79 0 -1.48 2.19 -2.96 4.32 -2.96 1.95 0 0.59 -2.78 14.03 28.41 5.33 12.19 10.42 23.79 11.36 25.75 4.14 8.29 8.64 12.37 15.74 14.26 2.19 0.53 4.32 1.30 4.73 1.60 1.07 0.83 0.89 2.43 -0.36 3.55 -1.01 0.89 -4.08 1.01 -31.96 1.01 -27.23 0 -30.89 -0.12 -31.72 -0.95z"/>
  <path d="M300.72 173 c-0.47 -1.78 -10.12 -49.18 -10.12 -49.72 0 -1.36 -9.94 3.73 -15.33 7.75 -1.12 0.83 -2.31 1.54 -2.72 1.54 -0.36 0 -2.19 1.07 -4.08 2.37 -1.83 1.30 -3.55 2.37 -3.79 2.37 -0.24 0 -1.60 0.83 -3.08 1.78 -3.31 2.19 -5.33 2.37 -5.33 0.41 0 -1.42 1.95 -4.68 13.26 -21.96 3.79 -5.86 6.69 -10.83 6.45 -11.01 -0.41 -0.36 -47.17 -10.65 -48.30 -10.65 -0.83 0 -0.36 -1.18 0.71 -1.78 0.65 -0.30 10.54 -2.49 22.02 -4.73 23.38 -4.68 25.39 -5.15 25.39 -5.98 0 -0.47 -4.73 -8.23 -16.22 -26.22 -1.83 -2.90 -3.31 -5.74 -3.31 -6.39 0 -2.25 3.20 -1.24 9.88 3.20 13.20 8.70 23.73 15.03 24.21 14.50 0.12 -0.12 2.49 -11.48 5.27 -25.21 2.72 -13.73 5.15 -25.21 5.33 -25.51 0.83 -1.30 1.95 -0.41 2.54 1.95 0.36 1.36 2.49 12.19 4.85 24.09 2.31 11.90 4.32 22.19 4.50 22.90 0.12 0.77 0.59 1.36 1.01 1.36 0.83 0 22.14 -12.78 26.46 -15.86 2.72 -1.95 7.10 -3.20 7.10 -2.01 0 1.54 -1.66 4.32 -10.59 18.17 -5.21 8.11 -9.35 14.91 -9.06 15.15 0.24 0.24 11.19 2.60 24.33 5.33 13.14 2.72 24.27 5.27 24.80 5.62 0.77 0.59 0.65 0.83 -1.12 1.60 -2.66 1.12 -8.58 2.66 -16.10 4.08 -7.34 1.36 -9.06 1.72 -19.83 3.97 -4.68 1.01 -9.17 1.83 -9.94 1.83 -0.83 0 -1.60 0.36 -1.78 0.83 -0.18 0.47 3.55 6.87 8.35 14.26 4.73 7.40 9.17 14.50 9.82 15.80 1.30 2.54 1.12 4.02 -0.41 4.02 -0.59 0 -6.10 -3.02 -12.31 -6.75 -14.20 -8.46 -19.65 -11.42 -20.24 -10.89 -0.41 0.41 -1.60 6.45 -7.34 36.58 -2.37 12.55 -3.14 15.39 -4.08 15.39 -0.36 0 -0.89 -1.01 -1.18 -2.19z m2.60 -32.85 c2.07 -11.48 4.50 -23.08 5.15 -24.44 0.36 -0.83 1.18 -1.48 1.83 -1.48 1.18 0 6.69 2.90 14.91 7.81 2.60 1.54 5.03 2.84 5.45 2.84 0.36 0 -1.95 -4.20 -5.15 -9.41 -3.20 -5.15 -6.04 -10.06 -6.21 -10.89 -0.36 -1.36 -0.18 -1.66 1.54 -2.43 1.12 -0.47 7.63 -2.13 14.44 -3.67 6.87 -1.48 12.78 -2.90 13.26 -3.20 1.07 -0.59 1.24 -0.53 -13.55 -3.79 -12.67 -2.78 -15.03 -3.43 -15.63 -4.44 -0.59 -0.95 0.83 -3.85 5.74 -11.78 2.54 -4.02 4.56 -7.40 4.56 -7.58 0 -1.01 -3.49 0.41 -9.59 3.97 -7.93 4.62 -10.83 5.56 -11.54 3.73 -0.24 -0.65 -1.66 -6.98 -3.14 -14.15 -1.95 -9.47 -2.90 -13.02 -3.55 -13.02 -0.59 0 -1.60 3.73 -3.61 13.55 -1.60 7.63 -3.26 13.97 -3.73 14.44 -1.18 1.18 -3.20 0.41 -11.60 -4.62 -6.27 -3.73 -8.88 -4.85 -8.88 -3.73 0 0.18 2.25 4.02 5.03 8.46 4.91 7.87 5.86 10.48 4.32 11.66 -0.95 0.71 -8.76 2.66 -17.64 4.38 -4.38 0.83 -7.22 1.72 -7.99 2.37 -0.65 0.65 -0.89 1.12 -0.59 1.12 1.72 0 25.98 5.98 26.69 6.57 1.66 1.36 1.60 1.60 -7.10 15.33 -2.13 3.43 -3.67 6.27 -3.37 6.39 0.65 0.24 4.14 -1.60 11.07 -5.74 2.66 -1.60 5.86 -3.20 7.10 -3.61 1.95 -0.65 2.31 -0.65 2.96 0.30 0.89 1.18 3.02 10 5.27 22.08 0.89 4.62 1.83 8.40 2.07 8.40 0.24 0 0.89 -2.49 1.48 -5.45z"/>
 </g>
</svg>